<?xml version="1.0" encoding="UTF-8"?>
<svg id="Layer_1" data-name="Layer 1" xmlns="http://www.w3.org/2000/svg" viewBox="0 0 215 30">
  <g id="root">
    <path d="m12.59,15.53h9.15v11.43c-2.4,1.03-5.1,1.54-8.1,1.54-3.92,0-6.92-1.11-9.01-3.34-2.08-2.24-3.12-5.4-3.12-9.49,0-2.55.51-4.8,1.54-6.77,1.04-1.98,2.52-3.5,4.45-4.57,1.94-1.07,4.15-1.61,6.65-1.61,2.7,0,5.13.5,7.28,1.51l-.7,1.58c-2.15-1.01-4.38-1.51-6.69-1.51-3.27,0-5.87,1.02-7.79,3.07-1.91,2.03-2.87,4.78-2.87,8.24,0,3.77.91,6.61,2.73,8.51,1.82,1.9,4.5,2.84,8.03,2.84,2.29,0,4.23-.33,5.82-.98v-8.81h-7.38v-1.64Z" style="fill: currentColor"/>
    <path d="m38.76,28.16l-.42-2.95h-.14c-.93,1.2-1.88,2.05-2.87,2.55-.97.49-2.13.74-3.46.74-1.81,0-3.22-.47-4.23-1.4-1.01-.94-1.51-2.23-1.51-3.89,0-1.82.75-3.23,2.24-4.23,1.51-1.01,3.68-1.54,6.52-1.59l3.51-.1v-1.23c0-1.77-.36-3.11-1.07-4.01-.71-.9-1.86-1.35-3.45-1.35-1.71,0-3.48.48-5.31,1.44l-.63-1.47c2.03-.96,4.03-1.44,6.01-1.44s3.54.53,4.53,1.59c1.01,1.06,1.51,2.72,1.51,4.97v12.39h-1.24Zm-6.79-1.2c1.97,0,3.52-.57,4.65-1.7,1.14-1.14,1.71-2.72,1.71-4.75v-1.83l-3.23.14c-2.59.13-4.44.54-5.55,1.23-1.1.69-1.65,1.76-1.65,3.22,0,1.16.35,2.07,1.05,2.72.71.64,1.71.96,3,.96Z" style="fill: currentColor"/>
    <path d="m53.79,9.18c2.58,0,4.52.82,5.82,2.47,1.31,1.63,1.97,4.03,1.97,7.18s-.69,5.48-2.07,7.16c-1.37,1.68-3.3,2.52-5.79,2.52-1.31,0-2.5-.27-3.55-.82-1.05-.55-1.88-1.32-2.5-2.33h-.15l-.48,2.81h-1.05V1.5h1.68v6.7c0,1.01-.02,1.93-.07,2.78l-.05,1.46h.12c.7-1.12,1.54-1.94,2.53-2.47,1-.53,2.19-.79,3.58-.79Zm-.03,1.54c-2.17,0-3.73.63-4.67,1.88-.94,1.26-1.41,3.33-1.41,6.22v.29c0,2.81.49,4.83,1.46,6.05.98,1.22,2.51,1.83,4.58,1.83s3.53-.71,4.55-2.12c1.02-1.43,1.53-3.45,1.53-6.08,0-5.38-2.01-8.07-6.04-8.07Z" style="fill: currentColor"/>
    <path d="m73.97,9.18c.78,0,1.62.08,2.51.24l-.32,1.63c-.77-.19-1.57-.29-2.39-.29-1.57,0-2.86.67-3.87,2.02-1.01,1.35-1.51,3.05-1.51,5.11v10.28h-1.68V9.53h1.43l.17,3.36h.12c.76-1.37,1.57-2.33,2.43-2.88.86-.56,1.9-.84,3.12-.84Z" style="fill: currentColor"/>
    <path d="m81.93,28.16h-1.68V9.53h1.68v18.62Zm-1.92-23.8c0-1.1.36-1.64,1.07-1.64.35,0,.62.14.81.43.2.29.31.69.31,1.22s-.1.92-.31,1.22c-.19.3-.46.45-.81.45-.71,0-1.07-.55-1.07-1.66Z" style="fill: currentColor"/>
    <path d="m95.58,28.5c-2.68,0-4.78-.83-6.28-2.5-1.49-1.67-2.24-4-2.24-7.01s.72-5.35,2.17-7.13c1.45-1.79,3.4-2.69,5.86-2.69,2.17,0,3.89.77,5.14,2.3,1.26,1.53,1.88,3.61,1.88,6.24v1.37h-13.29c.02,2.56.61,4.51,1.77,5.86,1.17,1.35,2.83,2.02,4.99,2.02,1.05,0,1.97-.07,2.77-.22.8-.15,1.82-.47,3.04-.96v1.54c-1.04.46-2,.77-2.89.93-.88.17-1.86.26-2.92.26Zm-.49-17.82c-1.78,0-3.2.59-4.28,1.78-1.08,1.18-1.7,2.88-1.88,5.11h11.41c0-2.16-.46-3.84-1.39-5.05-.93-1.22-2.21-1.83-3.85-1.83Z" style="fill: currentColor"/>
    <path d="m108.89,28.16h-1.68V1.5h1.68v26.66Z" style="fill: currentColor"/>
    <path d="m126.29,28.16l-.43-2.95h-.13c-.93,1.2-1.89,2.05-2.87,2.55-.97.49-2.13.74-3.46.74-1.81,0-3.22-.47-4.23-1.4-1.01-.94-1.51-2.23-1.51-3.89,0-1.82.75-3.23,2.24-4.23,1.5-1.01,3.68-1.54,6.52-1.59l3.51-.1v-1.23c0-1.77-.36-3.11-1.07-4.01-.71-.9-1.86-1.35-3.45-1.35-1.71,0-3.48.48-5.31,1.44l-.63-1.47c2.03-.96,4.03-1.44,6.01-1.44s3.54.53,4.53,1.59c1.01,1.06,1.51,2.72,1.51,4.97v12.39h-1.24Zm-6.79-1.2c1.97,0,3.52-.57,4.65-1.7,1.14-1.14,1.71-2.72,1.71-4.75v-1.83l-3.22.14c-2.59.13-4.44.54-5.55,1.23-1.1.69-1.65,1.76-1.65,3.22,0,1.16.35,2.07,1.05,2.72.71.64,1.71.96,3,.96Z" style="fill: currentColor"/>
    <path d="m142.98,28.16V3.11h1.73v23.4h11.83v1.64h-13.57Z" style="fill: currentColor"/>
    <path d="m161.88,9.53v12.06c0,1.87.39,3.24,1.17,4.09.78.85,1.99,1.27,3.63,1.27,2.2,0,3.81-.56,4.84-1.68,1.04-1.12,1.56-2.94,1.56-5.47v-10.28h1.66v18.62h-1.43l-.31-2.57h-.1c-1.2,1.94-3.33,2.91-6.4,2.91-4.2,0-6.3-2.27-6.3-6.8v-12.16h1.66Z" style="fill: currentColor"/>
    <path d="m185.46,18.58l-6.43-9.05h1.93l5.5,7.85,5.45-7.85h1.85l-6.33,9.05,6.79,9.58h-1.95l-5.81-8.31-5.84,8.31h-1.85l6.69-9.58Z" style="fill: currentColor"/>
    <path d="m213.5,18.82c0,3.04-.73,5.41-2.19,7.13-1.46,1.7-3.47,2.55-6.04,2.55-1.62,0-3.04-.39-4.28-1.18-1.23-.79-2.18-1.92-2.84-3.39-.66-1.47-.98-3.18-.98-5.11,0-3.04.73-5.4,2.19-7.09,1.46-1.7,3.46-2.55,6.01-2.55s4.52.86,5.96,2.59c1.45,1.71,2.17,4.07,2.17,7.06Zm-14.57,0c0,2.56.55,4.56,1.66,6,1.12,1.43,2.7,2.14,4.74,2.14s3.61-.71,4.72-2.14c1.12-1.44,1.68-3.44,1.68-6s-.56-4.56-1.7-5.98c-1.12-1.42-2.7-2.12-4.74-2.12s-3.61.71-4.72,2.12c-1.1,1.4-1.65,3.4-1.65,5.98Z" style="fill: currentColor"/>
  </g>
</svg>