<?xml version="1.0" encoding="UTF-8"?>
<svg id="Layer_1" data-name="Layer 1" xmlns="http://www.w3.org/2000/svg" viewBox="0 0 137 64">
  <g id="root">
    <path d="m6,13v37.61h25.9V13H6Zm22.15,33.81H9.74v-30.03h18.41v30.03Z"/>
    <path d="m47.33,26.11h-.04c-2.07-3.37-4.15-6.34-6.23-9.33h-1.63v13.09h1.77v-9.38c2.08,3.38,4.17,6.37,6.27,9.38h1.61v-13.09h-1.75v9.33Zm12.79,3.75l-4.12-13.09h-1.84l-4.46,13.09h1.91l1.13-3.57h3.89l1,3.57h2.49Zm-6.81-5.18c.52-1.72,1.03-3.31,1.49-5.33h.04c.52,2.02.98,3.61,1.46,5.33h-2.99Zm8.92,5.18h2.21v-11.33h3.38v-1.76h-9.03v1.76h3.4v11.33h.03Zm8.49-13.09h-2.19v13.09h2.19v-13.09Zm6.83,13.31c3.38,0,5.48-3.05,5.48-6.95,0-3.67-2.33-6.58-5.48-6.58s-5.48,2.91-5.48,6.58c0,3.89,2.14,6.95,5.48,6.95Zm0-11.66c2.2,0,3.12,2.3,3.12,4.71s-.82,5.1-3.12,5.1-3.12-2.55-3.12-5.1c0-2.41.92-4.71,3.12-4.71Zm8.6,2.06c2.08,3.38,4.17,6.37,6.27,9.38h1.61v-13.09h-1.77v9.33c-2.07-3.37-4.16-6.34-6.26-9.33h-1.59v13.09h1.77l-.03-9.38Zm11.53,5.81h3.89l1.01,3.57h2.47l-4.08-13.09h-1.85l-4.46,13.09h1.91l1.1-3.57Zm2.07-6.92h.04c.52,2.02.97,3.61,1.45,5.33h-2.99c.52-1.73,1.03-3.32,1.5-5.33Zm12.53,8.75h-4.37v-11.35h-2.19v13.09h6.57v-1.75h0Zm-66.75,16.74c-.48.23-1.01.34-1.55.32-1.91,0-3.75-1.84-3.75-4.94s1.61-4.86,3.96-4.86c.83.02,1.65.26,2.36.69l.72-1.55c-.92-.65-2.02-1.01-3.14-1.01-3.86-.03-6.26,3.07-6.26,6.66,0,3.82,2.4,6.85,6.2,6.85,1.26-.03,2.51-.3,3.67-.8v-5.41h-2.22v4.05Zm6.44-4.02h3.61v-1.78h-3.61v-3.59h3.69v-1.75h-5.9v13.07h6.57v-1.74h-4.35v-4.19Zm10.52-7.33c-3.19,0-5.48,2.92-5.48,6.58,0,3.91,2.1,6.95,5.48,6.95s5.48-3.05,5.48-6.95c0-3.7-2.32-6.62-5.48-6.62v.03Zm0,11.67c-2.31,0-3.12-2.58-3.12-5.1s.92-4.71,3.12-4.71,3.12,2.29,3.12,4.71-.8,5.07-3.11,5.07v.03Zm13.9-.32c-.48.23-1.02.34-1.56.32-1.91,0-3.74-1.84-3.74-4.94s1.61-4.86,3.96-4.86c.83.01,1.64.24,2.35.66l.71-1.55c-.92-.65-2.01-1.01-3.14-1.01-3.87,0-6.27,3.12-6.27,6.69,0,3.82,2.4,6.85,6.2,6.85,1.26-.03,2.51-.3,3.67-.8v-5.41h-2.21v4.05Zm11.7-7.35c0-2.55-1.53-3.77-4-3.77h-3.45v13.03h2.22v-4.91h.99l2.09,4.91h2.55l-2.6-5.42c.68-.39,1.24-.96,1.63-1.64.39-.68.59-1.45.58-2.23v.03Zm-4.3,2.66c-.22,0-.75.04-.92.05v-4.76h.98c.28-.02.56.02.82.12.26.1.5.26.69.46.2.2.34.44.44.71.09.27.12.55.09.83,0,1.75-1.05,2.54-2.1,2.6Zm9.18-6.47l-4.46,13.09h1.91l1.13-3.57h3.89l1.01,3.57h2.47l-4.12-13.09h-1.84Zm-.85,7.91c.52-1.72,1.03-3.31,1.49-5.33h.04c.52,2.01.98,3.61,1.46,5.33h-2.99Zm23.01-2.88h-4.57v-5.03h-2.2v13.07h2.2v-6.28h4.6v6.28h2.21v-13.03h-2.21l-.03,5Zm4.35,8.04h2.19v-13.07h-2.19v13.07Zm9.94-1.64c-2.14,0-3.95-1.84-3.95-4.94s1.64-4.86,3.89-4.86c.79.05,1.56.31,2.23.75l.7-1.59c-.87-.63-1.9-.98-2.97-1.01-3.82,0-6.23,3.12-6.23,6.7,0,3.82,2.4,6.84,6.2,6.84,1.04-.01,2.06-.32,2.94-.88l-.61-1.63c-.66.42-1.43.64-2.22.64l.02-.02Zm-26.33-11.47h-3.45v13.12h2.22v-4.91h1c.57,0,1.13-.12,1.65-.34.52-.22,1-.55,1.39-.96.4-.41.7-.89.91-1.42.21-.53.3-1.1.28-1.66-.02-2.54-1.55-3.77-4.02-3.77l.02-.05Zm-.31,6.47c-.22,0-.75.03-.92.05v-4.72h1c1.28,0,2.03.76,2.03,2.12-.02,1.75-1.07,2.54-2.12,2.6l.02-.05Z"/>
  </g>
</svg>