<?xml version="1.0" encoding="UTF-8"?>
<svg id="Layer_1" data-name="Layer 1" xmlns="http://www.w3.org/2000/svg" viewBox="0 0 77 64">
  <g id="root">
    <path d="M14.9845 20.008C12.6898 20.008 10.6179 20.429 8.77716 21.2709C6.93641 22.1129 5.36806 23.2025 4.08862 24.5562C2.80092 25.91 1.81039 27.4371 1.12527 29.154C0.431893 30.8627 0.0852051 32.6044 0.0852051 34.3791C0.0852051 35.964 0.365857 37.4002 0.918906 38.6797C1.47196 39.9591 2.25613 41.057 3.25492 41.965C4.25371 42.873 5.44235 43.5663 6.82085 44.0534C8.19935 44.5404 9.71817 44.7798 11.3773 44.7798C13.6473 44.7798 15.5954 44.367 17.2132 43.5333C18.8311 42.7079 20.2179 41.6348 21.3735 40.3223L16.9078 36.3767C16.1319 37.1526 15.3477 37.7469 14.5553 38.1597C13.7546 38.5806 12.8384 38.787 11.79 38.787C10.4033 38.787 9.26417 38.3495 8.36444 37.4745C7.4647 36.5996 7.01896 35.4026 7.01896 33.8838C7.01896 32.8438 7.20881 31.8532 7.58026 30.9039C7.95171 29.9629 8.46349 29.1292 9.09908 28.4028C9.73468 27.6764 10.4858 27.0986 11.3526 26.6694C12.2193 26.2402 13.152 26.0255 14.1508 26.0255C15.3312 26.0255 16.3135 26.2897 17.0812 26.8262C17.8571 27.3628 18.4762 28.1139 18.9549 29.088L24.6835 26.0255C23.9571 24.1848 22.7767 22.7237 21.1341 21.6341C19.4997 20.5446 17.4526 19.9998 14.9928 19.9998L14.9845 20.008ZM29.1409 20.4868L22.7272 44.301H35.1089C36.9497 44.301 38.551 44.1111 39.9213 43.7397C41.2833 43.3682 42.4224 42.8565 43.3139 42.2126C44.2136 41.5688 44.8739 40.8011 45.3114 39.9179C45.7407 39.0346 45.9553 38.0854 45.9553 37.0618C45.9553 35.8401 45.6168 34.8331 44.9482 34.0489C44.2796 33.2647 43.4047 32.6787 42.3398 32.299C44.0237 31.8945 45.3362 31.1516 46.2772 30.0868C47.2182 29.0219 47.6887 27.726 47.6887 26.2071C47.6887 25.456 47.5484 24.7378 47.2595 24.0445C46.9788 23.3511 46.5001 22.7402 45.8232 22.2037C45.1546 21.6672 44.2631 21.2544 43.1653 20.949C42.0592 20.6436 40.6889 20.4868 39.0545 20.4868H29.1244H29.1409ZM54.0364 20.4868L47.6227 44.301H54.2098L57.8912 30.5903L64.338 44.301H70.1409L76.5546 20.4868H69.9675L66.3851 33.7187L60.2107 20.4868H54.0364ZM34.2174 25.5798H38.3447C40.8127 25.5798 41.1512 26.818 41.1512 27.5774C41.1512 28.1965 41.0109 30.1198 37.5275 30.1198H33.0536L34.2174 25.5798ZM31.9474 34.0572H36.5204C38.4767 34.0572 39.3352 35.1385 39.3352 36.3767C39.3352 37.1196 38.8729 39.2658 35.5959 39.2658H30.5772L31.9474 34.0572Z" fill="black"/>
  </g>
</svg>