<?xml version="1.0" encoding="UTF-8"?>
<svg id="Layer_1" data-name="Layer 1" xmlns="http://www.w3.org/2000/svg" viewBox="0 0 90 64">
  <g id="root">
    <path d="m12.24,29.11h10.64v3.84c.49-4.71,4.52-8.45,9.33-8.45,4.18,0,7.72,2.72,8.94,6.51v-5.49h6.31v3.79c0-1.75,2.38-4.27,5.59-4.27,2.38,0,4.47.63,5.78,2.48v-1.94h3.4v-3.45l6.17-2.82v6.27h4.27v3.3c1.65-2.67,4.61-4.42,7.97-4.42,5.15,0,9.37,4.23,9.37,9.37v3.55h-12.92c.1,3.98,1.65,5.63,3.5,5.63,1.51,0,2.77-.78,3.25-3.3h5.97c-.78,5.49-4.66,7.14-9.23,7.14-3.35,0-6.27-1.12-7.92-3.69v3.25c-1.99.24-4.18.34-5.93.29-2.48,0-4.52-2.04-4.52-4.57v-11.71h-2.33v16.03h-6.31v-13.65c0-1.65-1.41-3.06-3.16-3.06s-3.01,2.53-3.01,4.27v12.43h-6.31v-5.34c-1.21,4.37-4.76,5.68-8.94,5.68-4.86,0-8.89-2.38-9.33-8.21v6.56c-4.47,1.6-7.72,1.7-11.41,1.7-5.88,0-11.41-6.12-11.41-14.47v-3.5c0-6.51,3.69-13.5,11.41-13.84,6.65-.29,10.88,2.33,11.56,9.76h-6.27c-.44-3.4-2.38-3.98-5-3.98-2.91,0-5.29,4.08-5.29,8.45v3.06c0,2.91,1.85,8.89,6.46,8.89h.63c2.82,0,3.55,0,3.69-2.33v-2.96l-.05-1.41h-5v-5.49l.1.1Zm59.69,1.36h-3.5v9.08c0,1.26,1.02,2.28,2.28,2.28h1.36c-.49-1.21-.78-2.67-.78-4.37v-3.59c0-1.21.24-2.33.63-3.4Zm12.19,2.91c-.29-3.55-1.7-4.71-3.45-4.71s-3.16,1.07-3.45,4.71h6.9Zm-42.94,4.03h-12.48c.1,3.98,1.65,5.63,3.5,5.63,1.51,0,2.77-.78,3.25-3.3h5.68v-2.33h.05Zm-5.49-4.03c-.29-3.55-1.7-4.71-3.45-4.71s-3.16,1.07-3.45,4.71h6.9Z" style="fill-rule: evenodd;"/>
    <path d="m56.49,23.13h.58v-3.35h-.58v-1.12h1.94l.44-.63h.97l-.44.63h1.65v2.09h-1.31v-.97h-1.26v1.02h.87v1.26h-.87v1.02h1.26v-.97h1.31v2.04h-4.57v-1.12.1Zm-9.47-4.13c-.34-.24-.73-.39-1.21-.39-.83,0-1.51.44-1.75,1.07v-1.02h-2.67v1.12h.63v3.35h-.63v1.12h3.89v-.29c.34.29.83.49,1.31.49,1.07,0,1.89-.78,1.89-1.7s-.92-1.46-1.65-1.65c-.68-.15-1.46-.49-1.46-.78s.29-.49.63-.49.87.53.92.83v.05h1.41v-.87h.78v3.35h-.58v1.12h2.62v-1.12h-.68v-3.35h.83v1.85c.1,1.46,1.31,2.62,2.77,2.62,1.55,0,2.77-1.26,2.77-2.77s-1.26-2.77-2.77-2.77c-.58,0-1.07.15-1.51.44v-.44h-5.59v.29l.05-.05Zm-3.01.83c-.05.15-.1.34-.1.53,0,.92.78,1.51,1.6,1.7.83.19,1.46.34,1.46.73s-.29.49-.63.49-.97-.49-.97-.78h-1.17v.68h-.78v-3.35h.63-.05Zm10.1.24c.78,0,1.41.63,1.41,1.41s-.63,1.41-1.41,1.41-1.41-.63-1.41-1.41.63-1.41,1.41-1.41Z" style="fill-rule: evenodd;"/>
  </g>
</svg>