<?xml version="1.0" encoding="UTF-8"?>
<svg id="Layer_1" data-name="Layer 1" xmlns="http://www.w3.org/2000/svg" viewBox="0 0 138 64">
  <g id="root">
    <path d="m91.7,21h-4.34v7.67c-.63-5.74-2.88-7.67-6.19-7.67-2.48,0-4.34,1.16-5.48,4.18-.83-3-3.2-4.18-7.13-4.18h-4.34v7.67h-.11c-.63-5.74-2.88-7.67-6.19-7.67s-5.48,1.93-6.19,7.67h-.11v-7.67h-5.59l-2.06,11.45h-.11l-1.77-11.45h-5.79v4.37c-.51-2.63-2.17-4.37-5.28-4.37-3.42,0-5.28,2.23-5.59,5.04-.94-3.78-3-5.04-5.68-5.04-3,0-5.16,1.66-5.99,6.41-.2-3.4-1.23-6.41-5.59-6.41-3.42,0-6.19,2.92-6.19,11.18,0,7.08,1.54,11.18,6.19,11.18,4.14,0,5.28-3.11,5.59-6.22.83,4.66,3,6.22,5.99,6.22s4.96-1.55,5.88-5.93c.2,2.82,1.34,5.93,5.59,5.93,2.37,0,4.14-.97,5.07-2.63v2.52h3.2v-16.33h.11l2.88,16.33h2.37l2.88-16.33h.11v16.33h3.82v-7.67h.11c.63,5.74,2.88,7.67,6.19,7.67s5.48-1.93,6.19-7.67h.11v7.67h4.34v-8.93h1.77c2.17,0,3.62-.78,4.54-2.04,0,8.36,2.48,10.97,6.3,10.97,3.2,0,5.48-1.93,6.19-7.67v7.67h9.81v-3.4h-5.48v-18.85h-.07ZM10.29,34.8c-.11,3.11-.4,5.04-1.86,5.04-1.34,0-1.77-.78-1.77-7.86s.94-7.67,1.86-7.67c1.03,0,1.54,1.37,1.54,4.85l3.62-.1c-.1,1.03-.13,2.07-.11,3.11-.02.97.01,1.95.11,2.92l-3.4-.29Zm11.15-.4c0,4.66-.63,5.53-1.54,5.53-1.03,0-1.54-.97-1.54-5.53v-4.56c0-4.66.63-5.53,1.54-5.53,1.03,0,1.54.97,1.54,5.53v4.56Zm10.01,5.55c-1.86,0-1.86-2.14-1.86-3.3h-3.71c.22-1.51.33-3.03.31-4.56.02-.84-.02-1.68-.11-2.52,1.86,3.99,7.24,5.15,7.24,8.36,0,.74-.42,2.02-1.88,2.02Zm-2.06-13.7c0-1.16.63-1.93,1.65-1.93,1.77,0,1.77,2.04,1.77,3.21h3.62v6.51c-2.08-3.53-7.04-4.9-7.04-7.8Zm30.18,8.15c0,4.66-.63,5.63-1.54,5.63-1.03,0-1.54-.97-1.54-5.63v-4.56c0-4.66.63-5.63,1.54-5.63,1.03,0,1.54.97,1.54,5.63v4.56Zm9.39-3.3h-.4v-6.7h.31c1.45,0,2.79.11,2.79,3.3,0,2.73-.94,3.4-2.7,3.4Zm13.75,3.3c0,4.66-.63,5.63-1.54,5.63-1.03,0-1.54-.97-1.54-5.63v-4.56c0-4.66.63-5.63,1.54-5.63,1.03,0,1.54.97,1.54,5.63v4.56Zm15.2-13.41h4.34v22.25h-4.34v-22.25Zm16.74,0h-11.78v3.4h3.71v18.85h4.34v-18.85h3.71v-3.4m17.88,0v11.75h-.11l-3.93-11.75h-4.25v19.44l-2.59-19.42h-6.3l-3.31,22.25h3.62l.63-4.96h3.55l.63,4.96h7.53v-13.51h.11l4.65,13.51h3.4v-22.27h-3.62Zm-15.69,14.08l1.34-10.67h.11l1.23,10.67h-2.68Z"/>
  </g>
</svg>