<svg xmlns="http://www.w3.org/2000/svg" width="159" height="64" fill="none">
    <g id="root">
        <g fill="#000" clip-path="url(#a)">
            <path
                d="M49.585 25.813a3.994 3.994 0 0 0-3.424 1.663 7.737 7.737 0 0 0-1.209 4.632c0 4.12 1.548 6.18 4.642 6.18a14.675 14.675 0 0 0 4.72-.967v3.289a13.105 13.105 0 0 1-5.087.967 7.737 7.737 0 0 1-6.17-2.447c-1.426-1.631-2.138-3.972-2.138-7.022a11.471 11.471 0 0 1 1.053-5.048 7.582 7.582 0 0 1 3.01-3.356 8.916 8.916 0 0 1 4.612-1.16c1.88.02 3.733.466 5.416 1.305l-1.267 3.183a20.942 20.942 0 0 0-2.089-.862 6.229 6.229 0 0 0-2.07-.357Zm16.44 15.493-.744-1.934h-.096a5.7 5.7 0 0 1-2.013 1.74 6.48 6.48 0 0 1-2.689.475 4.342 4.342 0 0 1-3.2-1.161 4.468 4.468 0 0 1-1.19-3.347 3.733 3.733 0 0 1 1.577-3.317 9.119 9.119 0 0 1 4.748-1.18l2.457-.077v-.619a1.934 1.934 0 0 0-2.195-2.147 10.017 10.017 0 0 0-3.985 1.024l-1.267-2.61a11.491 11.491 0 0 1 5.435-1.277 6.77 6.77 0 0 1 4.362 1.238 4.574 4.574 0 0 1 1.519 3.772v9.42h-2.719Zm-1.14-6.547-1.49.048a4.776 4.776 0 0 0-2.466.6 1.935 1.935 0 0 0-.822 1.692c0 1.09.623 1.634 1.867 1.634a2.97 2.97 0 0 0 2.146-.774 2.704 2.704 0 0 0 .803-2.05v-1.16l-.038.01Zm19.817 6.547h-3.87v-8.26a3.965 3.965 0 0 0-.56-2.292 1.934 1.934 0 0 0-1.731-.763 2.602 2.602 0 0 0-2.341 1.083 6.703 6.703 0 0 0-.725 3.588v6.644h-3.868v-14.14h2.9l.523 1.81h.213a4.08 4.08 0 0 1 1.78-1.549 6.054 6.054 0 0 1 2.572-.522 4.944 4.944 0 0 1 3.742 1.335 5.357 5.357 0 0 1 1.277 3.868v9.198h.088Zm11.895 0-.745-1.934h-.106a5.694 5.694 0 0 1-1.993 1.74 6.476 6.476 0 0 1-2.689.475 4.342 4.342 0 0 1-3.2-1.161 4.47 4.47 0 0 1-1.17-3.318 3.735 3.735 0 0 1 1.576-3.317 9.12 9.12 0 0 1 4.748-1.18l2.457-.077v-.649a1.93 1.93 0 0 0-1.32-2.07 1.931 1.931 0 0 0-.875-.076 10.017 10.017 0 0 0-3.985 1.024l-1.287-2.609a11.49 11.49 0 0 1 5.416-1.277 6.77 6.77 0 0 1 4.363 1.237 4.577 4.577 0 0 1 1.519 3.772v9.42h-2.71Zm-1.142-6.547-1.489.048a4.777 4.777 0 0 0-2.505.609 1.934 1.934 0 0 0-.822 1.692c0 1.09.623 1.635 1.867 1.635a2.957 2.957 0 0 0 2.146-.773 2.695 2.695 0 0 0 .803-2.051v-1.16Zm10.639 6.547h-3.869V21.635h3.869v19.67Zm9.052-2.756a8.353 8.353 0 0 0 2.427-.445v2.9a8.698 8.698 0 0 1-3.539.65 4.334 4.334 0 0 1-3.366-1.171 5.09 5.09 0 0 1-1.054-3.511v-6.77h-1.847V28.54l2.128-1.287 1.111-2.988h2.467v3.008h3.955v2.9h-3.955v6.77a1.51 1.51 0 0 0 .464 1.21c.342.273.771.414 1.209.397Zm10.677 3.075a7.291 7.291 0 0 1-5.339-1.886 7.15 7.15 0 0 1-1.934-5.339 7.843 7.843 0 0 1 1.78-5.493 6.322 6.322 0 0 1 4.913-1.934 6.23 6.23 0 0 1 4.662 1.702 6.466 6.466 0 0 1 1.682 4.7v1.935h-9.12a3.7 3.7 0 0 0 .968 2.563 3.413 3.413 0 0 0 2.553.966 10.62 10.62 0 0 0 2.417-.26c.821-.2 1.618-.486 2.38-.852v2.902a9.042 9.042 0 0 1-2.167.754c-.921.176-1.858.257-2.795.242Zm-.542-11.905a2.44 2.44 0 0 0-1.934.774 3.59 3.59 0 0 0-.792 2.205h5.416a3.214 3.214 0 0 0-.745-2.205 2.528 2.528 0 0 0-1.945-.774Zm14.488 11.905c-4.397 0-6.596-2.414-6.596-7.243a7.74 7.74 0 0 1 1.799-5.504 6.773 6.773 0 0 1 5.145-1.934 9.814 9.814 0 0 1 4.4.968l-1.14 2.988a18.952 18.952 0 0 0-1.693-.6 5.463 5.463 0 0 0-1.567-.232c-2.005 0-3.007 1.425-3.007 4.275 0 2.849 1.002 4.232 3.007 4.148a6.874 6.874 0 0 0 2.051-.28 7.437 7.437 0 0 0 1.934-.967v3.298a6.224 6.224 0 0 1-1.934.822c-.787.178-1.592.265-2.399.261Zm19.662-.25h-3.868v-8.26c0-2.038-.758-3.057-2.273-3.057a2.59 2.59 0 0 0-2.34 1.102 6.761 6.761 0 0 0-.726 3.57v6.653h-3.868v-19.68h3.868v4.003c0 .31-.029 1.042-.087 2.195l-.087 1.142h.203a4.47 4.47 0 0 1 4.1-2.07 5.01 5.01 0 0 1 3.782 1.345 5.33 5.33 0 0 1 1.286 3.868v9.217l.01-.029ZM16.325 35.426h-5.812v-7.002h9.313v10.512l-3.501-3.51Z" />
            <path fill-rule="evenodd"
                d="M33.85 31.925c0 9.347-7.578 16.924-16.925 16.924C7.578 48.85 0 41.272 0 31.925S7.578 15 16.925 15c9.347 0 16.924 7.578 16.924 16.925Zm-10.513-3.5h3.5v-3.512H7.012v14.023h16.325l.001-10.512Z"
                clip-rule="evenodd" />
        </g>
        <defs>
            <clipPath id="a">
                <path fill="#fff" d="M0 0h159v64H0z" />
            </clipPath>
        </defs>
    </g>
</svg>