<?xml version="1.0" encoding="UTF-8"?>
<svg id="Layer_1" data-name="Layer 1" xmlns="http://www.w3.org/2000/svg" viewBox="0 0 143 64">
  <g id="root">
    <path d="m140.55,23.25c-.04.4-.1.8-.19,1.19-.1.39-.99,2.58-1.06,2.9-.04.35-.06.7-.06,1.05-.27.12-.9.58-1.23.58s-1.13-.75-1.48-.83c0-.97.25-.97.16-1.48-.14-.55-.33-1.09-.59-1.6-.09-.24-.12-.49-.07-.74-.07.1-.12.21-.14.33-.02.11-.02.23,0,.35.09.51.51,1.28.56,1.61.05.34.05.73-.09.8-.94-.1-1.84-.39-2.66-.84-.64-.36-1.3-.68-1.97-.97.4-.82.9-1.59,1.49-2.29.49-.58,1.07-1.08,1.72-1.48.91-.45,1.94-.65,2.96-.56.61.07,1.22.18,1.81.35,0,0,.57-.46.99-.32-.12.33-.27.67-.27.67l.57.33c-.17.29-.32.6-.45.91v.05Zm-25.86,8.42c0,.71.26,1.39.72,1.93-.15-.45-.27-.91-.35-1.38v-.97c.12-.65.32-1.28.59-1.89-.24.24-.44.51-.6.8v.07c-.17.35-.27.72-.3,1.1,0,.08,0,.15,0,.23l-.06.1Zm15.77-4.94s.09-.07.12-.12c.08-.13.15-.25.22-.39.07-.14-.52-.21-.64-.3s-.16-.22-.34-.29v.18c.03.16.05.32.05.48,0,.21-.02.42-.08.62.1.03.2.07.29.13.1-.12.22-.23.35-.32h.03Zm-.06-1.88l-2.05-2.24-1.32,1.08v.15c.04.11.1.22.16.32.07.11.14.22.22.33.09.12.19.23.3.33.28.27.62.48.98.62.22.08.45.12.68.13l.91-.75.13.04Zm-.99-3.72v-.59s0-.07,0-.11c-.01-.03-.03-.06-.06-.09-.08-.04-.15-.08-.22-.14l-.06-.06c-.14.04-.29.04-.42,0-.07-.02-.14-.06-.2-.11-.04-.03-.07-.06-.09-.11,0-.05,0-.09,0-.14h-.19v.39c.03.13.03.27,0,.4-.03.13-.08.25-.16.36-.09.12-.2.22-.34.29-.14.06-.28.1-.43.11-.02.11-.02.23,0,.34.04.18.1.36.17.53.09.27.15.55.17.84l.3-.24c-.06-.24-.14-.48-.21-.73-.07-.25-.09-.33-.13-.49.17-.03.33-.1.46-.19.14-.1.26-.22.36-.37.17.06.34.11.52.14h.54l-.02-.03Zm.77-.76c.08-.08.06-.27-.1-.6-.05-.08-.12-.14-.19-.2l-.21.09c-.04.05-.08.1-.12.15,0,0-.09,0-.12.05-.04.1-.11.19-.21.24.12.11.25.19.4.24.1,0,.44.12.52,0v.04Zm.39-1.35c.36-.2.67-.47.91-.8-.07-.02-.14-.05-.2-.09-.24-.14-.45-.34-.61-.57-.21.51-.55.96-.99,1.31,0,.04,0,.08,0,.13.02.11.02.23,0,.34.29-.08.57-.2.83-.36l.06.05Zm.99-.97c-.05-.19-.16-.35-.32-.47-.09-.08-.18-.16-.28-.22-.07-.05-.16-.08-.25-.08,0,.02,0,.05,0,.08.07.16.17.3.31.42.22.21.46.34.53.29h0Zm-2.15.88h-.51s-.26.17-.29.32c0,.11,0,.21,0,.32h.81c.06-.11.09-.23.09-.35,0-.12-.03-.24-.1-.34v.05Zm-.57,1.08c.42,0,.39-.22.39-.22h-.73s-.09.2.34.22Zm-1.06-.86c-.07-.07-.14-.12-.23-.16l-.33.28s-.08.06-.13.09c-.09-.08-.15-.18-.18-.29,0-.03,0-.05,0-.08-.01-.03-.01-.07,0-.11.02-.03.05-.06.09-.08l.26-.11c.01-.06.04-.12.08-.16-.04-.09-.09-.17-.14-.25l-.23-.13c-.09-.04-.17-.09-.25-.15v.32c0,.06,0,.12,0,.17v.32h-.19v-.44c0-.23,0-.46-.06-.68h-.36s.08.49.1.58c.02.09.09.55.09.58h-.18c0-.21-.08-.43-.14-.64-.06-.2-.1-.37-.15-.53-.17.02-.34.06-.5.13-.11.05-.22.11-.31.18-.07.07-.13.14-.19.21l-.21.29c-.02.06-.04.11-.06.17,0,.04,0,.07,0,.11v.12h.17c.15.03.31.05.46.05h.26c.06.23.18.43.35.6.11.14.24.26.39.35h.2v.27h.15s0-.1,0-.15c0-.01,0-.02,0-.03s0-.02,0-.03v-.6h.18v.15l.21.22.06.07.15.17.16-.12s.08-.08.11-.13v-.16s0-.05,0-.07l.06-.14c.03-.07.08-.13.15-.17-.01-.05-.04-.09-.08-.12l.24.08Zm-2.55,6.31l-.11-.12-.07-.08-.67.55,2.07,2.27.08-.07,1.23-1.01c-.4-.11-.79-.27-1.15-.47-.43-.25-.84-.55-1.2-.89l-.09-.08-.09-.11Zm-1.48.82l.61.48,1.5,1.19.12-.14-1.54-1.68v-.05l-.2-.18-.47.38h-.02Zm-.06.81l1.35.51h.11l-1.24-.97h-.06l-.16.45Zm-9.3,8.88c-.06-.22-.11-.45-.17-.64l-.41-1.42-.59-2c-.12-.44-.14-.9-.06-1.34.08-.45.27-.87.55-1.23.27-.37.63-.66,1.05-.87.41-.2.87-.31,1.34-.31.14,0,.28,0,.42,0h.53l.2-.08.34-.15c.54-.23,1.1-.39,1.68-.48.72-.11,1.46-.11,2.18,0,.43.07.85.19,1.25.35.15.05.31.09.46.12.27,0,.29-.27.61-.27.15.04.29.09.43.15v.07c-.59.94-1.03,1.97-1.31,3.05v.06c0,.05,0,.1,0,.15l4.29,1.7.77-1.84s.79.54,1.2.77c-.02.32-.02.64,0,.97.08,1.25.3,3.1.37,3.67.06.08.11.15.21.15s1.2-.12,1.51-.51l-.19-2.75-.14-2.02-1.46-3.41-.23-.53-.43.97-1.91,4.16-3.82-1.48c.28-1.13.75-2.2,1.39-3.18v-.16l-.99-.38.27-.65-.26-.2.07-.06.25-.2.38-.31.47-.39.21-.16.07-.07-.09-.13c-.08-.12-.14-.24-.2-.37-.16-.23-.3-.47-.41-.72-.07-.15-.13-.31-.19-.47-.03-.05-.05-.11-.06-.17-.06-.19-.1-.38-.13-.57v-.36c0-.23.07-.45.19-.64.04-.07.08-.13.14-.18.04-.05.09-.09.14-.13.09-.07.18-.13.29-.17l.22-.1c0-.06,0-.13,0-.19h.12c.11.02.23.05.33.09,0-.22-.29-.26-.38-.38,0-.03,0-.06,0-.09,0-.02,0-.05,0-.08.03-.04.05-.09.06-.14,0-.02,0-.05,0-.07v-.05h-.05l-.08-.07c-.22-.21-.37-.49-.43-.78,0-.03,0-.05,0-.08,0-.03,0-.06,0-.09,0-.1,0-.2,0-.3v-.1c.07-.32.25-.62.5-.83l.23-.16c.09-.06.19-.1.29-.14h.06l.29-.07h.89v.06c.04.07.08.15.11.22v.06c.15.14.39.17.45.3l.28.55s.45.5.45.52c0,.04,0,.08,0,.11s.03.07.05.1l.27-.09c0-.07,0-.14,0-.21,0,0,.33-.43.49-.42h.6c.5-.39.85-.94.99-1.55v-.06s.07-.01.11,0h.12c.09.02.17.05.25.1.14.08.27.17.38.28l.1.11c.07.08.13.16.19.25.05.06.08.13.09.2.02.07.02.15,0,.22-.4.61-1,1.07-1.69,1.3h-.05c.14.14.24.3.29.48h.74v1.84s0,.06,0,.1c0,.03,0,.06,0,.09v.06c-.02.1-.06.19-.11.27-.08.1-.18.19-.3.26-.12.07-.25.12-.38.14h-1.13l1.68,1.85s-.5.4-.67.56c.08.1.16.2.26.29.11.07.83.13.77.45,0,.04,0,.08,0,.12-.08.16-.18.32-.3.45-.11.14-.36.16-.43.41.12.08.22.19.27.33.4-.46.76-.96,1.06-1.49.87.21,2.96,1.34,3.48,1.51.39.1.78.18,1.18.22-.05.13-.09.26-.11.4,0,0,.17.1.35.2.1.06.2.13.28.22-.04.47.03.94.21,1.37.06.15.12.3.16.45,0,.05,0,.1,0,.15,0,.12.05.23.07.36.03.16.04.31.05.47v.41c0,.19-.02.39-.06.58v.31c-.05.22-.12.43-.21.63v.06h-.06c-.13-.04-.26-.1-.38-.16l-.22-.15c-.07-.06-.14-.12-.21-.19.12.26.3.49.53.67l.13.09h.1s.56.18.68.2c.61.1,1.21.23,1.8.4.1,0,.28-.18.82-.14.24.02.46.13.63.29.17.17.28.39.31.62,0,.35-.17.43-.23.64-.06.2-.47,2.47-.52,2.9-.05.43,0,.6,0,.6,0,0,.1.45.11.6v.08c0,.06,0,.12,0,.18-.02.13-.06.26-.13.38-.07.11-.16.21-.27.29v.05s-.07.21-.11.32c-.22.55-.56,1.04-.99,1.45l-.96-1.45c.18-.32.4-.61.67-.87l.11-.11.25-.21v-.08c0-.17.05-.33.13-.48.08-.15.19-.28.32-.39,0-.06.12-2.39,0-3.24-.33-.05-.64-.17-.93-.34-.08-.07-2.69.18-2.77.18s-.3-.1-.44-.09h-.49c-.17,0-.33-.05-.47-.15-.15-.11-.25-.26-.3-.44,0-.04,0-.08,0-.12v-.09s0-.06,0-.09c0-.03,0-.06,0-.09.02-.07.05-.13.08-.19-.14-.04-.28-.1-.41-.16-.13-.06-.25-.13-.37-.21-.29-.2-.53-.45-.71-.73-.07-.09-.12-.19-.17-.3.08.33.22.64.42.92.2.28.45.51.75.69v.16c-.02.1-.02.2,0,.3.04.22.14.42.3.58.17.19.4.33.66.39-.21.75-.67,2.04-.67,2.14-.19.58-.43,1.15-.72,1.68-.04.56-.12,1.12-.25,1.67v.37c0,.13,0,.69-.09,1.64v.19c0,.08.04.15.08.22l.1.14.14.18c.1.15.19.3.27.46.04.08.08.15.11.23,0,.04,0,.08,0,.12.15.34.25.7.3,1.07h-1.97c0-.11,0-.23,0-.34.02-.43-.08-.86-.29-1.24-.07-.2-.18-.38-.32-.54.03-.27.08-.55.16-.81.12-.31.26-.61.43-.9,0,0,.13-2.28.13-2.38s-.17-.97-.24-1.33c-.06-.44-.19-.87-.37-1.28,0-.09.21-.32.29-.45l-.05-.05c-.1.09-1.97.64-1.97.64-.17-.22-.36-.43-.57-.62-.82-.06-1.64-.16-2.44-.3-1.16-.21-2.29-.51-3.4-.9l-.54-.2v.12c.01.13.01.25,0,.38-.05.47-.18.93-.38,1.36-.09.19-.2.37-.32.53.08.17.14.35.19.54v.35c.01.15.01.3,0,.44.8.94,1.53,1.93,2.18,2.98.15.09.26.22.35.37.08.15.12.32.11.48,0,.1,0,.21,0,.31-.03.11-.09.22-.16.31,0,.12,0,.22.07.33.02.24.02.49,0,.73-.01.36-.09.72-.22,1.05-.03.07-.06.13-.1.19l-1.43-1.17c.06-.18.14-.34.24-.5.09-.17.19-.34.31-.5-.18-.17-.29-.39-.31-.63,0-.04,0-.08,0-.13,0-.04,0-.08,0-.12,0-.25.09-.5.24-.71-.19-.31-.61-.92-.75-1.08-.26-.32-.54-.62-.85-.89-.21-.1-.43-.18-.66-.22l-.45-.07-.51-.09.13-.4c.01-.15.01-.3,0-.44-.01-.1-.04-.2-.08-.3,0-.03,0-.06,0-.1l-.06-.12c-.19-.24-.6-.76-.68-.85.28-.34.51-.7.7-1.09.09-.19.18-.4.25-.59.09-.26.16-.52.21-.78,0-.12,0-.24.07-.37.09-.06.18-.12.26-.18.23-.18.44-.39.61-.63.11-.14.2-.29.29-.45.01-.04.03-.07.05-.11-.02.03-.04.07-.07.1-.27.39-.63.72-1.06.97h-.05s-.07.05-.11.07l-.26.11c0,.13,0,.24-.07.36-.03.16-.08.33-.13.48-.04.14-.09.28-.15.42-.09.22-.19.43-.31.64-.13.24-.28.47-.44.69,0,.05-.08.11-.12.15-.33.37-.71.7-1.13.97-.24.14-.48.27-.74.38l-.22.09c-.13.29-.33.55-.59.74-.14.1-.26.21-.37.34-.18.28-.31.59-.39.91-.15.53-.27,1.07-.35,1.61v.57c0,.1.28,1.01.28,1.11.67.51,1.1,1.25,1.21,2.07h-1.64c-.04-.26-.11-.51-.21-.75-.15-.42-.37-.8-.66-1.14-.06-.08-.13-.15-.21-.21-.01-.05-.01-.1,0-.15.04-.33.13-.66.26-.97.05-.09.09-.2.11-.3,0-.1.16-1.99.15-2.06-.16-.48-.37-.95-.63-1.39.1-.12.2-.23.32-.34.25-.19.43-.44.52-.73,0-.09.09-.1.09-.19,0-.03,0-.06,0-.09-.37.27-.83.42-1.29.42.28-.22.49-.52.61-.85.12-.33.15-.7.08-1.04,0-.03,0-.06,0-.09"/>
    <path d="m3,45.68v-23.08h12.02v3.87h-7.63v5.32h5.81v3.87h-5.81v6.08h7.95v3.87l-12.35.09Z"/>
    <path d="m26.7,29.03c-.24-.88-.68-1.68-1.3-2.36-.25-.24-.55-.43-.88-.56-.33-.13-.68-.18-1.03-.17-.34-.02-.67.03-.99.15-.31.11-.59.29-.82.52-.44.52-.66,1.18-.62,1.86,0,.29.07.58.2.84.13.26.31.49.53.68.56.49,1.16.91,1.81,1.27.72.41,1.51.84,2.36,1.3.84.45,1.63.99,2.36,1.61.73.62,1.35,1.36,1.82,2.18.51.94.77,2,.74,3.06,0,.93-.16,1.86-.49,2.73-.32.79-.81,1.5-1.44,2.08-.66.6-1.44,1.05-2.3,1.33-1,.32-2.04.47-3.08.46-1.69.03-3.34-.51-4.66-1.54-1.47-1.31-2.47-3.05-2.85-4.96l4.33-.97c.1.61.29,1.21.56,1.77.21.43.49.83.84,1.17.28.28.62.5.99.65.32.12.65.18.99.19.53-.03,1.05-.2,1.49-.49.33-.22.61-.51.81-.85.21-.34.34-.71.38-1.1.05-.39,0-.79-.12-1.16-.12-.37-.33-.72-.59-1.01-.54-.52-1.14-.98-1.78-1.36-.73-.44-1.51-.89-2.36-1.32-.84-.44-1.63-.97-2.36-1.58-.71-.54-1.32-1.2-1.81-1.93-.51-.82-.77-1.78-.73-2.75-.05-.86.08-1.73.37-2.54.3-.81.76-1.56,1.36-2.18.7-.61,1.51-1.08,2.4-1.38s1.83-.42,2.76-.35c.9-.01,1.79.13,2.64.42.76.26,1.46.66,2.07,1.17.59.5,1.09,1.11,1.48,1.78.4.7.7,1.45.88,2.23l-3.95,1.13Z"/>
    <path d="m46.15,22.6v3.87h-5.12v19.22h-4.39v-19.19h-5.12v-3.87l14.64-.03Z"/>
    <path d="m43.29,45.68l5.69-23.08h5.64l5.55,23.08h-4.21l-1.12-4.83h-6.07l-1.24,4.83h-4.23Zm6.26-8.76h4.37l-2.13-9.29h-.07l-2.17,9.29Z"/>
    <path d="m61.07,22.6h6.11c1.13-.02,2.25.12,3.34.43.92.27,1.76.74,2.45,1.39.71.7,1.25,1.54,1.58,2.47.4,1.19.61,2.44.62,3.69v7.1c0,1.26-.22,2.5-.62,3.69-.33.93-.87,1.78-1.58,2.47-.7.65-1.55,1.13-2.48,1.39-1.09.3-2.21.44-3.34.43h-6.11l.03-23.07Zm4.4,19.18h1.53c.52.04,1.03-.04,1.52-.21.48-.17.93-.44,1.3-.79.77-1.04,1.13-2.32.99-3.6v-6.07c.11-1.24-.2-2.48-.88-3.54-.38-.39-.84-.69-1.35-.87-.51-.18-1.06-.25-1.6-.2h-1.51v15.28Z"/>
    <path d="m75.13,45.68l5.73-23.08h5.64l5.54,23.08h-4.23l-1.11-4.83h-6.08l-1.24,4.83h-4.24Zm14.26-28.68c-.1.49-.24.98-.41,1.45-.16.44-.38.86-.66,1.24-.26.36-.6.65-.99.86-.46.23-.97.34-1.48.32-.42,0-.84-.06-1.25-.17-.41-.12-.81-.24-1.19-.39l-1.12-.41c-.35-.11-.72-.18-1.09-.18-.18,0-.36.03-.52.1-.17.07-.32.17-.43.31-.24.28-.41.61-.48.97h-1.97c.08-.5.21-.99.39-1.47.17-.45.41-.87.71-1.25.29-.35.64-.65,1.04-.86.46-.22.97-.33,1.48-.32.43,0,.85.07,1.26.19.41.13.81.26,1.19.4l1.08.4c.28.12.58.19.89.19.18,0,.36-.03.52-.1.16-.08.3-.18.41-.31.26-.27.44-.6.52-.97h2.1Zm-7.98,19.92h4.38l-2.15-9.29h-.07l-2.16,9.29Z"/>
    <path d="m92.07,30.01c-.03-1.23.15-2.45.54-3.62.31-.89.82-1.71,1.5-2.38.64-.62,1.43-1.07,2.29-1.32,1.91-.56,3.95-.56,5.85,0,.85.26,1.63.71,2.27,1.32.67.67,1.18,1.49,1.49,2.38.39,1.17.58,2.39.54,3.62v8.26c.03,1.22-.15,2.44-.54,3.61-.31.9-.82,1.71-1.49,2.39-.65.61-1.44,1.06-2.3,1.32-1.91.55-3.94.55-5.85,0-.86-.26-1.64-.71-2.29-1.32-.68-.67-1.19-1.49-1.5-2.39-.38-1.16-.55-2.38-.51-3.61v-8.26Zm4.4,8.83c-.06.46-.02.93.11,1.37.13.45.35.86.65,1.22.61.43,1.35.67,2.1.67s1.49-.23,2.1-.67c.29-.36.52-.77.65-1.22.13-.45.17-.91.11-1.37v-9.4c.06-.46.02-.93-.11-1.37-.14-.44-.36-.86-.65-1.22-.61-.43-1.35-.67-2.1-.67s-1.49.23-2.1.67c-.3.36-.52.77-.65,1.22-.13.45-.17.91-.11,1.37v9.4Z"/>
  </g>
</svg>