<?xml version="1.0" encoding="UTF-8"?>
<svg id="Layer_1" data-name="Layer 1" xmlns="http://www.w3.org/2000/svg" viewBox="0 0 70 64">
  <g id="root">
    <path d="m26.71,5v15.57h15.5V5h-15.5Zm16.47,17.11c-.16,0-.31,0-.46,0-4.52.25-7.88,3.28-7.58,8.78v14.38h7.76v-15.5l16.17-.06v-7.61h-15.43c-.16,0-.31,0-.47,0h0Zm-17.38,0h-15.9v7.6l16.18.06v15.5h7.76v-14.38c.31-5.68-3.3-8.72-8.04-8.78Z"/>
    <path d="m7.97,49.93h-.06c-1.45.05-2.63.58-3.53,1.51-.9.93-1.36,2.12-1.38,3.52v.05c.03,1.41.49,2.61,1.38,3.54.88.93,2.06,1.41,3.46,1.45h.02c.77,0,1.53-.16,2.22-.5.62-.31,1.17-.73,1.64-1.24l.13-.19-.13-.13-1.04-1.06-.13-.19-.19.19c-.33.34-.72.62-1.13.83-.41.21-.87.32-1.33.31-.84-.02-1.48-.31-1.99-.9-.52-.59-.81-1.36-.82-2.16,0,0,0-.01,0-.02,0,0,0-.02,0-.02,0-.79.28-1.56.79-2.16.49-.57,1.17-.85,2.02-.87.45,0,.89.11,1.29.31.41.2.78.47,1.11.79l.19.19.19-.19,1.04-1.22.13-.19-.13-.13c-.44-.45-.97-.82-1.54-1.08-.69-.29-1.43-.44-2.17-.44h-.03Zm52.1.13l-.05.13-4.03,9.34-.13.31h2.08l.05-.13.9-2.12h4l.88,2.12.05.13h2.18l-.13-.31-4-9.35-.06-.13h-1.75Zm-37.03.03l.02.02v9.77h6.87v-1.97h-4.81v-7.83h-2.08Zm-10.08,0h-.01v5.6c.01,1.38.37,2.48,1.13,3.22.74.73,1.75,1.08,2.98,1.08s2.27-.38,3.01-1.11c.74-.73,1.12-1.85,1.13-3.27v-5.52h-2.04v5.59c0,.82-.19,1.41-.56,1.8-.37.38-.84.57-1.51.57-.29,0-.57-.04-.83-.15-.26-.11-.5-.27-.7-.48-.37-.38-.56-.99-.56-1.82v-5.52h-2.05Zm24.38,0h-.01v5.6c.01,1.38.37,2.48,1.13,3.22.74.73,1.75,1.08,2.98,1.08s2.27-.38,3.01-1.11c.74-.73,1.12-1.85,1.13-3.27v-5.52h-2.04v5.59c0,.82-.19,1.41-.56,1.8s-.84.57-1.51.57c-.29,0-.57-.04-.83-.15-.26-.11-.5-.27-.7-.48-.37-.38-.56-.99-.56-1.82v-5.52h-2.05Zm9.79,0v9.77h2.08v-3.27h1.68l2.17,3.15.06.06h2.46l-.25-.31-2.31-3.34c.56-.19,1.04-.44,1.4-.87.43-.5.67-1.18.68-1.98v-.05c.01-.41-.07-.82-.25-1.19-.14-.36-.35-.68-.62-.94v-.02c-.33-.33-.73-.57-1.17-.71-.52-.18-1.06-.27-1.61-.26h-4.29l-.03-.05h0Zm-18.83,0v1.96h2.85v7.8h2.06v-7.79h2.93v-1.96h-7.84Zm20.86,1.92h2.11c.56,0,.99.13,1.27.38.14.11.26.26.33.43.08.17.11.35.1.54v.02c0,.44-.13.73-.43.97-.31.24-.67.38-1.22.38h-2.12v-2.67l-.03-.05Zm11.77.76l1.25,2.9h-2.47l1.22-2.9Z"/>
  </g>
</svg>