<?xml version="1.0" encoding="UTF-8"?>
<svg id="Layer_1" data-name="Layer 1" xmlns="http://www.w3.org/2000/svg" viewBox="0 0 64 64">
  <g id="root">
    <path d="m48.48,49.2c-2.1-6.01-4.19-12.02-6.55-18.85v4.67c.04,1.87-.66,3.69-1.96,5.05-1.3,1.36-3.08,2.16-4.97,2.23h-11.32c-1.22,0-2.42-.34-3.46-.98.93,2.64,1.58,4.52,1.73,4.94.26.83.79,1.56,1.49,2.09.71.52,1.56.81,2.44.83l22.6.02Z"/>
    <path d="m10,11.85h22.61c.88.02,1.72.3,2.43.82.7.52,1.22,1.24,1.49,2.07.13.34.68,1.96,1.49,4.3h-14.34c-1.89.07-3.67.87-4.96,2.23-1.3,1.36-2,3.18-1.96,5.05v4.89c-2.41-6.92-4.58-13.13-6.75-19.36Z"/>
    <path d="m39.99,24.61l.89,2.55h-13.57c-.23.01-.45.11-.61.28-.16.17-.24.4-.23.63v4.56c0,.12.01.23.05.34.04.11.1.21.18.29.08.09.17.15.28.2.11.05.22.08.34.08h8.8v1.88c0,.16-.02.32-.08.48-.06.15-.15.29-.26.41-.11.12-.25.21-.4.28-.15.07-.31.1-.47.11h-11.15c-.32-.04-.61-.19-.82-.42-.22-.23-.34-.53-.36-.85v-9.53c0-.16.01-.32.07-.47.05-.15.14-.29.24-.41.11-.12.24-.22.39-.29.15-.07.31-.11.47-.12h16.26Z"/>
    <path d="m37.79,9h10.27c1.95,15.55,3.9,31.09,5.87,46.64-5.36-15.55-10.74-31.1-16.13-46.64Z"/>
  </g>
</svg>