<?xml version="1.0" encoding="UTF-8"?>
<svg id="Layer_1" data-name="Layer 1" xmlns="http://www.w3.org/2000/svg" viewBox="0 0 64 64">
  <g id="root">
    <path d="m24.17,24.39h-2.11v6.17h2.04c2.5,0,3.76-1.05,3.76-3.13s-1.23-3.04-3.69-3.04Zm30.83,10.25v-8.88c0-13.13-11.25-12.76-11.25-12.76h-20.77c-12.98,0-12.98,11.66-12.98,11.66v27.34s1.25-4.56,7.36-4.56h23.57c14.73-.01,14.06-12.8,14.06-12.8Zm-27.69,7l-5.26-7.24v7.24h-5.53v-22.36h7.16c1.47-.04,2.93.07,4.37.34.96.21,1.85.64,2.6,1.26.91.74,1.64,1.68,2.12,2.75.48,1.07.71,2.23.66,3.39.06,1.68-.47,3.33-1.51,4.67-1.03,1.24-2.5,2.06-4.11,2.28l6.14,7.61-6.65.06Zm21.92-17.96l-7.91,17.96h-6.36l8.35-17.53h-8.79v-4.83h14.77v4.4h-.06Z"/>
  </g>
</svg>