<?xml version="1.0" encoding="UTF-8"?>
<svg id="Layer_1" data-name="Layer 1" xmlns="http://www.w3.org/2000/svg" viewBox="0 0 94 64">
  <g id="root">
    <path d="m16.8,48.51c9.28,0,16.8-7.5,16.8-16.75s-7.52-16.75-16.8-16.75S0,22.5,0,31.75s7.52,16.75,16.8,16.75Z" style="fill: #a1a1a1;"/>
    <path d="m16.8,15.91c-3.72.02-7.28,1.5-9.9,4.13-2.62,2.63-4.1,6.19-4.1,9.9,0,.77.07,1.47.14,2.23,1.82-4.75,6.79-8.17,12.67-8.17,2.25-.04,4.47.49,6.46,1.52,1.99,1.04,3.69,2.55,4.95,4.41h.07c1.35-.02,2.66.42,3.71,1.26.06-.42.08-.84.07-1.26,0-3.72-1.48-7.29-4.12-9.92-2.64-2.63-6.22-4.11-9.95-4.11Z" style="fill: #d3d3d3;"/>
    <path d="m30.8,31.19c-1.05-.83-2.36-1.28-3.71-1.26h-.07c-4.13,0-8.47,3.56-9.73,8.03-.33.99-.42,2.04-.27,3.06.15,1.03.53,2.01,1.11,2.87h-1.33c-3.32-.02-6.53-1.2-9.07-3.35-2.53-2.14-4.23-5.11-4.79-8.38-.45,1.28-.68,2.62-.7,3.98.01,1.66.38,3.3,1.08,4.8.7,1.51,1.72,2.84,2.98,3.92,1.61,1.22,3.4,2.16,5.32,2.79,1.67.57,3.42.85,5.18.84,2.39,0,4.75-.51,6.92-1.5,2.17-.99,4.11-2.43,5.68-4.22,1.09-1.2,1.99-2.57,2.66-4.05.07-.28.21-.49.28-.77.77-2.86.14-5.31-1.54-6.77Z" style="fill: #7a7a7a;"/>
    <path d="m93.16,36.29c-2.59,0-3.78-1.4-3.78-3.98v-16.05h-8.05v11.94c-.91-1.97-2.37-3.64-4.21-4.82-1.84-1.17-3.97-1.79-6.15-1.79s-4.31.62-6.15,1.79c-1.84,1.17-3.3,2.84-4.21,4.82v-6.35h-7.91v11.17c0,2.02-1.12,3.42-2.87,3.42s-2.87-1.4-2.87-3.42v-11.17h-7.98v11.31c0,6.91,4.27,11.24,10.85,11.24,5.32,0,9.1-2.93,10.29-7.68.77,2.23,2.22,4.17,4.14,5.56,1.92,1.38,4.23,2.13,6.6,2.16,2.37.02,4.69-.69,6.64-2.03,1.95-1.34,3.43-3.26,4.25-5.47,1.19,5.1,5.04,7.33,10.22,7.33h2.03v-7.96h-.84Zm-22.19.14c-.68,0-1.34-.2-1.91-.58-.56-.38-1-.91-1.26-1.53-.26-.62-.33-1.31-.2-1.98.13-.66.46-1.27.94-1.75.48-.48,1.09-.8,1.76-.94.67-.13,1.35-.06,1.98.19.63.26,1.16.7,1.54,1.26.38.56.58,1.22.58,1.9,0,.91-.36,1.78-1,2.42-.64.64-1.52,1-2.43,1Z"/>
  </g>
</svg>