<?xml version="1.0" encoding="UTF-8"?>
<svg id="Layer_1" data-name="Layer 1" xmlns="http://www.w3.org/2000/svg" viewBox="0 0 127 64">
  <g id="root">
    <path d="m98.26,48.04c2.27-.28,4.77-.77,7.29-1.4.97-1-.27-2.02-1.45-1.85-2.73-.18-6.23,2.29-5.84,3.25Z" style="fill: #716760;"/>
    <path d="m101.5,41.36c-1.77-.86-14.32-1.06-15.23,1.72,1.04,2.21,2.22,3.89,3.84,4.59,1.73.75,4.68.79,8.15.37,1.93-1.02,3.92-2.12,5.84-3.25.77-1.61-.88-3.05-2.6-3.43Z" style="fill: #7f7f7f;"/>
    <path d="m102.19,15.34c-7.98.76-15.9,2.8-17.94,5.63-2.49,3.44-1.57,13.4,1.28,20.41.24.6.49,1.17.74,1.71,5.29-.41,10.64-1,15.23-1.72-4.11-5.56-5.51-8.8-6.91-12.17-2.18-5.27-3.5-11.93,7.61-13.85Z" style="fill: #8a8a8a;"/>
    <path d="m122.71,20.94c-.04-.09-.08-.19-.13-.28-.67-1.58-1.67-3.29-3.01-4.02-.6-.33-1.35-.6-2.24-.83-1.15,1.44-.53,3.91.67,5,1.47.55,3.12.76,4.7.11Z" style="fill: #616161;"/>
    <path d="m112.48,20.55c.09.16.41.21.78.33,1.27.7,4.15.49,4.74-.06-.16-1.56-.38-3.22-.67-5.01-2.07-.53-4.83-.79-7.88-.82-.27,2.06,1.94,3.69,3.03,5.55Z" style="fill: #777472;"/>
    <path d="m102.41,22.15c2.47-.6,5.95-1.1,10.86-1.27-.09-.16-.18-.32-.27-.48-1.09-1.86-2.27-3.66-3.54-5.4-2.43-.01-4.85.1-7.27.33-12.33,1.57-10,8.77-7.81,14.04,1.4,3.37,3.01,6.42,7.12,11.99h0c-4.29-5.93-8.51-16.9.91-19.2Z" style="fill: #6b6b6b;"/>
    <path d="m114.82,36.97v.02c-2.39,2.51-10.72,7.27-10.72,7.8.46.59.91,1.16,1.45,1.85,8.22-2.07,16.69-5.68,18.49-8.71,1.48-2.48.98-11.83-1.33-16.99-1.67-.07-3.24-.1-4.7-.11.03,5.9-.17,13.01-3.19,16.14Z" style="fill: #7e7e7e;"/>
    <path d="m104.1,44.79c4.32-2.55,8.33-5.29,10.7-7.8v-.02c-.36.39-.77.75-1.21,1.08-1.67,1.25-6.26,2.39-12.1,3.31.05.07.11.15.16.22" style="fill: #636363;"/>
    <path d="m114.82,36.97c3.02-3.13,3.99-8.2,3.19-16.14-1.71-.01-3.29,0-4.74.06,2.62,4.78,4.83,12.58,1.55,16.09Z" style="fill: #8f8f8f;"/>
    <path d="m28.11,26.03c-1.28-.75-2.75-1.13-4.38-1.13-1.72,0-3.31.41-4.7,1.23-1.38.8-2.52,1.96-3.32,3.34-.81,1.4-1.23,3-1.23,4.75s.42,3.39,1.25,4.79c.81,1.39,1.98,2.54,3.38,3.34,1.42.81,3.04,1.23,4.85,1.23,1.4,0,2.73-.27,3.96-.79,1.22-.52,2.3-1.31,3.17-2.3l.07-.08-2.33-2.37-.08.1c-.57.67-1.29,1.2-2.1,1.53-.81.34-1.72.51-2.69.51-1.17,0-2.21-.25-3.11-.75-.88-.48-1.61-1.22-2.07-2.11-.28-.54-.48-1.11-.59-1.71h13.81l.02-.09c.07-.32.12-.64.15-.97.03-.29.04-.56.04-.81,0-1.7-.36-3.24-1.08-4.56s-1.73-2.38-3.01-3.14Zm-9.93,6.54c.11-.55.29-1.08.55-1.58.44-.85,1.13-1.56,1.97-2.04.85-.48,1.84-.73,2.96-.73s1.98.23,2.73.67c.75.45,1.33,1.08,1.74,1.89.26.5.43,1.1.53,1.78h-10.48Zm51.1-7.3v2.2c-.58-.71-1.3-1.3-2.12-1.72-1.07-.57-2.3-.85-3.65-.85-1.66,0-3.16.42-4.48,1.25-1.32.83-2.37,1.95-3.13,3.36-.77,1.41-1.15,3-1.15,4.75s.39,3.35,1.15,4.75c.77,1.4,1.82,2.53,3.13,3.34,1.32.81,2.82,1.23,4.47,1.23,1.35,0,2.59-.29,3.67-.85.81-.42,1.52-1,2.1-1.71v2.19h3.63v-17.93h-3.63Zm.22,8.98c0,1.72-.5,3.16-1.5,4.26-.99,1.1-2.31,1.66-3.94,1.66-1.09,0-2.07-.26-2.92-.77-.84-.5-1.53-1.23-1.99-2.09-.47-.89-.71-1.92-.71-3.09s.24-2.17.71-3.05c.46-.86,1.14-1.59,1.97-2.1.83-.51,1.81-.77,2.9-.77s2.05.25,2.86.75c.81.5,1.45,1.2,1.91,2.09.46.9.69,1.95.69,3.11h0Zm-27.03-9.36c-1.99,0-3.54.69-4.6,2.06-.03.04-.06.08-.09.11v-1.8h-3.59v17.93h3.59v-10.18c0-1.6.39-2.8,1.16-3.57.77-.77,1.77-1.16,2.97-1.16.55,0,1.05.08,1.48.24l.16.06v-3.61h-.1c-.32-.06-.65-.09-.97-.09Zm12.65,3.7v-3.61h-.1c-.32-.06-.65-.09-.97-.09-1.99,0-3.54.69-4.6,2.06-.03.04-.06.08-.09.11v-1.8h-3.59v17.93h3.59v-10.18c0-1.6.39-2.8,1.16-3.57.77-.77,1.77-1.16,2.97-1.16.55,0,1.05.08,1.48.24l.16.06Zm-47.19,4.49v-4.05h3.94v-3.79h-3.94v-6.05h-3.93v13.89c0,3.19.83,5.85,2.4,7.71,1.52,1.79,3.7,2.78,6.13,2.78v-3.93c-2.88,0-4.6-2.45-4.6-6.56Z"/>
  </g>
</svg>