<?xml version="1.0" encoding="UTF-8"?>
<svg id="Layer_1" data-name="Layer 1" xmlns="http://www.w3.org/2000/svg" viewBox="0 0 64 64">
  <g id="root">
    <path d="m10.7,16l.56,1.4c.02.07.04.14.07.2l8.45,21.45c.82,2.18.88,3.92.17,5.18-.68,1.26-1.67,2.01-2.89,2.3-1.22.29-2.43.05-3.7-.58-1.22-.69-1.91-1.9-2.15-3.57-.4-1.38.12-2.88,1.51-4.5,1.39-1.61,2.2-3.41,2.36-5.43.12-1.04-.16-2.02-.86-2.89-.7-.81-1.56-1.44-2.61-1.79-1.08-.37-2.23-.47-3.35-.3-1.22.17-2.26.75-3.19,1.68-1.33,1.39-2.25,3.28-2.78,5.76-.51,2.49-.4,4.98.41,7.45.52,1.56,1.69,3.05,3.54,4.5,1.8,1.38,3.75,2.08,5.89,2.08,0,0,4.31,0,8.7,0h0s10.2,0,10.2,0V16H10.7Zm22.26.04v32.96h20.34l-.56-1.4c-.02-.07-.04-.14-.07-.2l-8.45-21.45c-.82-2.18-.88-3.92-.17-5.18.68-1.26,1.67-2.01,2.89-2.3,1.22-.29,2.43-.05,3.7.58,1.22.69,1.91,1.9,2.15,3.57.4,1.38-.12,2.88-1.51,4.5-1.39,1.61-2.2,3.41-2.36,5.43-.12,1.04.16,2.02.86,2.89.7.81,1.56,1.44,2.61,1.79,1.08.37,2.23.47,3.35.3,1.22-.17,2.26-.75,3.19-1.68,1.33-1.39,2.25-3.28,2.78-5.76.51-2.49.4-4.98-.41-7.45-.52-1.56-1.69-3.05-3.54-4.5-1.8-1.38-3.75-2.08-5.89-2.08,0,0-4.31,0-8.7,0h0s-10.2,0-10.2,0Z"/>
  </g>
</svg>