<?xml version="1.0" encoding="UTF-8"?>
<svg id="Layer_1" data-name="Layer 1" xmlns="http://www.w3.org/2000/svg" viewBox="0 0 129 64">
  <g id="root">
    <path d="m104.51,26.81c-.03-.29,0-.57.1-.85.09-.27.24-.52.44-.74.2-.21.44-.38.71-.5.27-.12.56-.18.86-.18.23-.03.47-.01.69.05s.43.17.61.31.33.32.43.52c.11.2.17.42.18.65.5-.53,1.11-.94,1.78-1.23.67-.28,1.4-.43,2.14-.42.84-.01,1.67.17,2.43.53.75.36,1.41.89,1.92,1.55.55-.63,1.23-1.14,2-1.51.76-.37,1.6-.58,2.45-.63.77-.07,1.54.02,2.26.28.72.25,1.38.65,1.93,1.18.55.52.97,1.16,1.24,1.86.27.7.38,1.45.32,2.2v7.87c.04.29.01.59-.08.87-.09.28-.24.54-.44.76s-.44.4-.72.52c-.28.12-.57.18-.87.18s-.6-.06-.87-.18c-.27-.12-.52-.3-.72-.52-.2-.22-.35-.48-.44-.76-.09-.28-.11-.57-.08-.87v-7.16c0-1.65-.93-2.82-2.46-2.82s-2.48,1.17-2.48,2.82v7.16c.04.29.01.59-.08.87-.09.28-.24.54-.44.76-.2.22-.44.4-.72.52-.27.12-.57.18-.87.18s-.6-.06-.87-.18c-.27-.12-.52-.3-.72-.52-.2-.22-.35-.48-.44-.76-.09-.28-.11-.57-.08-.87v-7.16c0-1.65-.93-2.82-2.44-2.82s-2.48,1.17-2.48,2.82v7.16c.04.29.01.59-.08.87-.09.28-.24.54-.44.76-.2.22-.44.4-.72.52-.27.12-.57.18-.87.18s-.6-.06-.87-.18c-.27-.12-.52-.3-.72-.52-.2-.22-.35-.48-.44-.76-.09-.28-.11-.57-.08-.87v-10.94Zm-87.53,11.81c0,4.95-3.31,7.37-8.09,7.37-1.7,0-6.61-.82-6.61-3.07.04-.44.23-.85.53-1.17.31-.32.72-.54,1.16-.61,1.34,0,2.83,1.27,5.26,1.27.46.05.93,0,1.38-.15.44-.15.85-.39,1.18-.7.34-.31.6-.69.78-1.12.17-.42.25-.88.23-1.33v-.96c-.48.64-1.12,1.16-1.85,1.5-.74.34-1.55.49-2.37.43-4.49.07-6.56-3.71-6.56-7.77s2.68-7.95,6.92-7.95c.75-.02,1.49.13,2.16.45.67.32,1.25.79,1.69,1.38.08-.48.33-.92.72-1.22.39-.31.88-.46,1.38-.43.29,0,.58.07.85.18.27.12.51.29.7.5.2.21.34.46.44.73.09.27.12.56.1.84v11.81h.02Zm-7.5-10.51c-2.19,0-3.27,2.21-3.27,4.12,0,2.18,1.09,4.17,3.27,4.17s3.29-1.96,3.29-4.04-1-4.26-3.29-4.26Zm8.79-7.89c-.03-.28,0-.57.1-.84.09-.27.24-.52.44-.73.2-.21.44-.38.7-.49.27-.11.56-.17.85-.17s.58.06.85.17c.27.11.51.28.7.49.2.21.35.46.44.73.09.27.13.55.1.84v17.52c.03.28,0,.57-.1.84-.09.27-.24.52-.44.73-.2.21-.44.38-.7.49-.27.11-.56.17-.85.17s-.58-.06-.85-.17c-.27-.11-.51-.28-.7-.49-.2-.21-.35-.46-.44-.73-.09-.27-.13-.55-.1-.84v-17.52Zm20.08,12.06c.09,1.01-.05,2.03-.38,2.99-.34.96-.88,1.84-1.59,2.59-.71.75-1.57,1.34-2.52,1.75-.96.41-1.99.62-3.03.62s-2.08-.21-3.03-.62c-.96-.41-1.81-1-2.52-1.75-.71-.75-1.25-1.63-1.59-2.59-.34-.96-.47-1.98-.38-2.99-.04-1,.12-2,.47-2.94s.9-1.8,1.6-2.54c.7-.74,1.54-1.33,2.48-1.75.94-.42,1.95-.65,2.98-.69,1.03.04,2.04.27,2.97.69.93.42,1.78,1.01,2.47,1.75.7.74,1.24,1.6,1.59,2.54.35.94.51,1.94.47,2.94Zm-10.85,0c0,1.96,1.05,4.11,3.39,4.11s3.39-2.14,3.39-4.11-1.02-4.17-3.39-4.17-3.44,2.21-3.44,4.17h.05Zm11.67-12.06c-.03-.28,0-.57.1-.84.09-.27.24-.52.44-.73.2-.21.44-.38.7-.49.27-.11.56-.17.85-.17s.58.06.85.17c.27.11.51.28.7.49.2.21.35.46.44.73.09.27.13.55.1.84v5.56c1.11-.93,2.54-1.43,4-1.42,4.53,0,6.78,4.12,6.78,8.08s-2.68,7.7-6.92,7.7c-.75.02-1.5-.14-2.17-.47-.67-.33-1.25-.81-1.68-1.41-.08.48-.33.91-.72,1.22-.39.31-.87.46-1.37.43-.29,0-.57-.06-.84-.17-.27-.11-.5-.27-.7-.48-.2-.2-.35-.45-.45-.71-.1-.26-.14-.54-.13-.82v-17.52Zm7.5,16.19c2.19,0,3.27-2.23,3.27-4.12s-1.09-4.17-3.27-4.17-3.31,2.05-3.31,4.03,1.05,4.27,3.31,4.27Zm22.96-4.12c.07,1-.07,2.01-.42,2.96-.35.95-.89,1.81-1.6,2.55-.71.73-1.56,1.32-2.51,1.72-.95.4-1.97.61-3,.61s-2.06-.21-3-.61c-.95-.4-1.8-.99-2.51-1.72-.71-.73-1.25-1.6-1.6-2.55-.35-.95-.49-1.95-.42-2.96-.07-1,.07-2.01.42-2.96.35-.95.89-1.82,1.6-2.55.71-.73,1.56-1.32,2.51-1.72.95-.4,1.97-.61,3-.61s2.06.21,3,.61c.95.4,1.8.99,2.51,1.72.71.73,1.25,1.6,1.6,2.55.35.95.49,1.95.42,2.96Zm-10.85,0c0,1.96,1.05,4.11,3.39,4.11s3.39-2.14,3.39-4.11-1.02-4.17-3.39-4.17-3.39,2.21-3.39,4.17Zm14.3,3.43c.45,0,.9.12,1.28.37.38.24.67.59.85,1,.18.41.22.85.14,1.29-.09.43-.3.83-.62,1.14-.32.31-.73.53-1.17.61-.44.09-.91.04-1.33-.12-.42-.17-.78-.45-1.03-.82-.25-.37-.39-.8-.39-1.24,0-.59.24-1.15.66-1.57.43-.42,1-.65,1.61-.66Zm14.52-6.81c-1.05,0-1.98-.79-3.39-.79-2.39,0-3.54,2.08-3.54,4.17-.05.5,0,1,.16,1.48.15.48.4.92.73,1.3.33.38.73.7,1.19.93.46.23.96.37,1.47.41,1.06-.22,2.1-.5,3.12-.86.48,0,.94.2,1.27.53.34.33.52.78.52,1.25,0,2.11-3.61,2.82-5.09,2.82-1.03-.01-2.05-.23-3-.64-.94-.41-1.79-1-2.5-1.73-.7-.74-1.25-1.6-1.6-2.55-.35-.95-.5-1.95-.44-2.95-.04-1,.12-2,.47-2.94s.9-1.8,1.6-2.54c.7-.74,1.54-1.33,2.48-1.75.94-.42,1.95-.65,2.98-.69,1.7,0,5.09.59,5.09,2.59.07.89-.61,1.95-1.53,1.95Zm16.18,3.38c.07,1-.07,2.01-.42,2.96-.35.95-.89,1.81-1.6,2.55s-1.56,1.32-2.51,1.72c-.95.4-1.97.61-3,.61s-2.06-.21-3-.61c-.95-.4-1.8-.99-2.51-1.72-.71-.73-1.25-1.6-1.6-2.55-.35-.95-.49-1.95-.42-2.96-.07-1,.07-2.01.42-2.96.35-.95.89-1.82,1.6-2.55.71-.73,1.56-1.32,2.51-1.72.95-.4,1.97-.61,3-.61s2.06.21,3,.61c.95.4,1.8.99,2.51,1.72.71.73,1.25,1.6,1.6,2.55.35.95.49,1.95.42,2.96Zm-10.87,0c0,1.96,1.05,4.11,3.39,4.11s3.39-2.14,3.39-4.11-1.02-4.17-3.39-4.17-3.44,2.21-3.44,4.17h.05Z"/>
  </g>
</svg>