<svg xmlns="http://www.w3.org/2000/svg" aria-hidden="true" viewBox="0 0 24 24">
  <g id="root">
    <path d="M11.9999 7.19249C9.33971 7.19249 7.19284 9.33937 7.19284 11.9995C7.19284 14.6597 9.33971 16.8066 11.9999 16.8066C14.66 16.8066 16.8069 14.6597 16.8069 11.9995C16.8069 9.33937 14.66 7.19249 11.9999 7.19249ZM11.9999 15.1237C10.2796 15.1237 8.87565 13.7198 8.87565 11.9995C8.87565 10.2792 10.2796 8.87531 11.9999 8.87531C13.7202 8.87531 15.1241 10.2792 15.1241 11.9995C15.1241 13.7198 13.7202 15.1237 11.9999 15.1237ZM17.0038 5.87531C16.3827 5.87531 15.8811 6.37687 15.8811 6.99796C15.8811 7.61906 16.3827 8.12062 17.0038 8.12062C17.6249 8.12062 18.1264 7.6214 18.1264 6.99796C18.1266 6.85048 18.0977 6.70441 18.0413 6.56812C17.985 6.43183 17.9023 6.308 17.798 6.20371C17.6937 6.09943 17.5699 6.01674 17.4336 5.96039C17.2973 5.90403 17.1513 5.87512 17.0038 5.87531V5.87531ZM21.3702 11.9995C21.3702 10.7058 21.3819 9.42374 21.3092 8.13234C21.2366 6.63234 20.8944 5.30109 19.7975 4.20421C18.6983 3.10499 17.3694 2.76515 15.8694 2.69249C14.5756 2.61984 13.2936 2.63156 12.0022 2.63156C10.7085 2.63156 9.42643 2.61984 8.13502 2.69249C6.63502 2.76515 5.30377 3.10734 4.2069 4.20421C3.10768 5.30343 2.76784 6.63234 2.69518 8.13234C2.62252 9.42609 2.63424 10.7081 2.63424 11.9995C2.63424 13.2909 2.62252 14.5753 2.69518 15.8667C2.76784 17.3667 3.11002 18.698 4.2069 19.7948C5.30612 20.8941 6.63502 21.2339 8.13502 21.3066C9.42877 21.3792 10.7108 21.3675 12.0022 21.3675C13.296 21.3675 14.578 21.3792 15.8694 21.3066C17.3694 21.2339 18.7006 20.8917 19.7975 19.7948C20.8967 18.6956 21.2366 17.3667 21.3092 15.8667C21.3842 14.5753 21.3702 13.2933 21.3702 11.9995V11.9995ZM19.3077 17.5261C19.1366 17.9526 18.9303 18.2714 18.5999 18.5995C18.2694 18.93 17.953 19.1362 17.5264 19.3073C16.2936 19.7972 13.3663 19.687 11.9999 19.687C10.6335 19.687 7.70377 19.7972 6.47096 19.3097C6.0444 19.1386 5.72565 18.9323 5.39752 18.6019C5.06705 18.2714 4.8608 17.955 4.68971 17.5284C4.20221 16.2933 4.31237 13.3659 4.31237 11.9995C4.31237 10.6331 4.20221 7.70343 4.68971 6.47062C4.8608 6.04406 5.06705 5.72531 5.39752 5.39718C5.72799 5.06906 6.0444 4.86046 6.47096 4.68937C7.70377 4.20187 10.6335 4.31203 11.9999 4.31203C13.3663 4.31203 16.296 4.20187 17.5288 4.68937C17.9553 4.86046 18.2741 5.06671 18.6022 5.39718C18.9327 5.72765 19.1389 6.04406 19.31 6.47062C19.7975 7.70343 19.6874 10.6331 19.6874 11.9995C19.6874 13.3659 19.7975 16.2933 19.3077 17.5261Z" fill="currentColor"/>
  </g>
</svg>	